# xmcd CD database file
#
# Track frame offsets:
#	150
#	12351
#	25815
#	39995
#	50777
#	60570
#	69796
#	78229
#	92193
#	115478
#	125739
#	134964
#
# Disc length: 1982 seconds
#
# Revision: 0
# Processed by: cddbd v1.5.2PL0 Copyright (c) Steve Scherf et al.
# Submitted via: CDex 1.70beta2
#
DISCID=a807bc0c
DTITLE=Roy Clark - Greatest Hits Disc 1
DYEAR=1900
DGENRE=Country
TTITLE0=Riders in the sky
TTITLE1=Roy's guitar boogie
TTITLE2=Gentle on my mind
TTITLE3=San Antonio rose
TTITLE4=Bluegrass breakdown
TTITLE5=Foggy mountain breakdown
TTITLE6=Dueling banjos
TTITLE7=El condor pasa
TTITLE8=Malaguena
TTITLE9=Black sapphire
TTITLE10=John cumberland creek
TTITLE11=Down under
EXTD=
EXTT0=
EXTT1=
EXTT2=
EXTT3=
EXTT4=
EXTT5=
EXTT6=
EXTT7=
EXTT8=
EXTT9=
EXTT10=
EXTT11=
PLAYORDER=
